<?xml version="1.0"?>
<!DOCTYPE svg PUBLIC "-//W3C//DTD SVG 1.1//EN" "http://www.w3.org/Graphics/SVG/1.1/DTD/svg11.dtd">
<!--Produced by application: DwgToSvgConverter 2015.3.26.1128-->
<!--Library: www.woutware.com WW.Cad 4.0.36.35-->
<!--Creation date: 03/26/2015 16:41:28-->
<svg xmlns="http://www.w3.org/2000/svg" xmlns:xlink="http://www.w3.org/1999/xlink" width="21cm" height="29.7cm" viewBox="0 0 2098 2969.3" version="1.1">
  <title>tempSvg</title>
  
  <g id="FM_OBJEKT_RAUM" stroke-width="0.1">
    
    
    
    
    <path data-handle="0" d="M427.98 591.18L427.98 596.79L426.11 596.79L426.11 416.77L427.98 416.77L446.67 416.77L446.67 427.98L427.98 427.98L427.98 416.77L426.11 416.77L426.11 242.36L427.98 242.36L446.67 242.36L446.67 253.57L427.98 253.57L427.98 242.36L426.11 242.36L426.11 226.78L799.86 226.78L799.86 242.36L794.25 242.36L794.25 261.04L794.25 584.33L787.4 584.33L787.4 596.79L446.67 596.79L446.67 591.19L427.98 591.19L427.98 596.79L426.11 596.79L426.11 596.79L427.98 596.79L427.98 591.18L446.67 591.18L446.67 596.79L787.4 596.79L787.4 584.33L794.25 584.33L794.25 261.04L794.25 242.36L799.86 242.36L799.86 226.79L426.12 226.78L426.12 242.36L427.98 242.36L427.98 253.57L446.67 253.57L446.67 242.36L427.98 242.36L426.12 242.36L426.12 416.77L427.98 416.77L427.98 427.98L446.67 427.98L446.67 416.77L427.98 416.77L426.12 416.77L426.11 596.79L427.98 596.79L427.98 591.18 z" fill="#333333" stroke="#333333" />
    
    <!--
    <polygon data-handle="0" points=" 427.98 591.18 427.98 596.79 426.11 596.79 426.11 416.77 427.98 416.77 446.67 416.77 446.67 427.98 427.98 427.98 427.98 416.77 426.11 416.77 426.11 242.36 427.98 242.36 446.67 242.36 446.67 253.57 427.98 253.57 427.98 242.36 426.11 242.36 426.11 226.78 799.86 226.78 799.86 242.36 794.25 242.36 794.25 261.04 794.25 584.33 787.4 584.33 787.4 596.79 446.67 596.79 446.67 591.19 427.98 591.19 427.98 596.79 426.11 596.79 426.11 596.79 427.98 596.79 427.98 591.18 446.67 591.18 446.67 596.79 787.4 596.79 787.4 584.33 794.25 584.33 794.25 261.04 794.25 242.36 799.86 242.36 799.86 226.79 426.12 226.78 426.12 242.36 427.98 242.36 427.98 253.57 446.67 253.57 446.67 242.36 427.98 242.36 426.12 242.36 426.12 416.77 427.98 416.77 427.98 427.98 446.67 427.98 446.67 416.77 427.98 416.77 426.12 416.77 426.11 596.79 427.98 596.79 427.98 591.18 z" fill="#FF0000" stroke="#333333" />
    -->
    
    <!--
    <path data-handle="0" d="M427.98 591.18L427.98 596.79L426.11 596.79L426.11 416.77L427.98 416.77L446.67 416.77L446.67 427.98L427.98 427.98L427.98 416.77L426.11 416.77L426.11 242.36L427.98 242.36L446.67 242.36L446.67 253.57L427.98 253.57L427.98 242.36L426.11 242.36L426.11 226.78L799.86 226.78L799.86 242.36L794.25 242.36L794.25 261.04L794.25 584.33L787.4 584.33L787.4 596.79L446.67 596.79L446.67 591.19L427.98 591.19L427.98 596.79L426.11 596.79L426.11 596.79L427.98 596.79L427.98 591.18L446.67 591.18L446.67 596.79L787.4 596.79L787.4 584.33L794.25 584.33L794.25 261.04L794.25 242.36L799.86 242.36L799.86 226.79L426.12 226.78L426.12 242.36L427.98 242.36L427.98 253.57L446.67 253.57L446.67 242.36L427.98 242.36L426.12 242.36L426.12 416.77L427.98 416.77L427.98 427.98L446.67 427.98L446.67 416.77L427.98 416.77L426.12 416.77L426.11 596.79L427.98 596.79L427.98 591.18 z" fill="#333333" stroke="#333333" />
    -->
    
    <!--
    <path data-handle="0" d="M427.98 591.18L427.98 591.18 z" fill="#333333" stroke="#333333" />
    <path data-handle="0" d="M427.98 591.18L427.98 596.79L426.11 596.79L426.11 416.77L427.98 416.77L446.67 416.77L446.67 427.98L427.98 427.98L427.98 416.77L426.11 416.77L426.11 242.36L427.98 242.36L446.67 242.36L446.67 253.57L427.98 253.57L427.98 242.36L426.11 242.36L426.11 226.78L799.86 226.78L799.86 242.36L794.25 242.36L794.25 261.04L794.25 584.33L787.4 584.33L787.4 596.79L446.67 596.79L446.67 591.19L427.98 591.19L427.98 596.79L426.11 596.79L426.11 596.79L427.98 596.79L427.98 591.18L446.67 591.18L446.67 596.79L787.4 596.79L787.4 584.33L794.25 584.33L794.25 261.04L794.25 242.36L799.86 242.36L799.86 226.79L426.12 226.78L426.12 242.36L427.98 242.36L427.98 253.57L446.67 253.57L446.67 242.36L427.98 242.36L426.12 242.36L426.12 416.77L427.98 416.77L427.98 427.98L446.67 427.98L446.67 416.77L427.98 416.77L426.12 416.77L426.11 596.79L427.98 596.79L427.98 591.18 z" fill="#333333" stroke="#333333" />
    <path data-handle="0" d="M426.11 596.79L427.98 596.79L427.98 591.18L427.98 591.18L427.98 596.79L426.11 596.79 z" fill="#333333" stroke="#333333" />
    <path data-handle="0" d="M426.11 596.79L427.98 596.79L427.98 602.4L446.67 602.4L446.67 596.79L787.4 596.79L787.4 609.25L797.3 609.25L797.3 933.16L787.4 933.16L787.4 945.62L446.67 945.62L446.67 940.01L427.98 940.01L427.98 945.62L426.11 945.62L426.11 776.81L427.98 776.81L427.98 765.6L446.67 765.6L446.67 776.81L427.98 776.81L426.11 776.81L426.11 596.79L426.11 776.81L427.98 776.81L446.67 776.81L446.67 765.6L427.98 765.6L427.98 776.81L426.11 776.81L426.11 945.62L427.98 945.62L427.98 940.01L446.67 940.01L446.67 945.62L787.4 945.62L787.4 933.16L797.3 933.16L797.3 609.25L787.4 609.25L787.4 596.79L446.67 596.79L446.67 602.4L427.98 602.4L427.98 596.79L426.11 596.79L426.11 776.81 z" fill="#333333" stroke="#333333" />
    <path data-handle="0" d="M787.4 945.62L787.4 958.07L797.3 958.07L797.3 1120.13L446.67 1120.03L446.67 1114.43L427.98 1114.43L427.98 1120.03L426.11 1120.03L426.11 945.62L427.98 945.62L427.98 951.22L446.67 951.22L446.67 945.62L787.4 945.62L446.67 945.62L446.67 951.23L427.98 951.23L427.98 945.62L426.11 945.62L426.11 1120.03L427.98 1120.03L427.98 1114.42L446.67 1114.42L446.67 1120.03L797.3 1120.12L797.3 958.08L787.4 958.08L787.4 945.62L446.67 945.62 z" fill="#333333" stroke="#333333" />
    <path data-handle="0" d="M426.11 1120.03L427.98 1120.03L427.98 1125.64L446.67 1125.64L446.67 1120.03L794.25 1120.12L794.25 1281.98L787.42 1281.98L787.42 1306.9L794.25 1306.9L794.25 1463.25L794.25 1481.94L794.25 1490.04L631.05 1490.04L631.05 1481.94L631.05 1463.25L619.84 1463.25L619.84 1481.94L631.05 1481.94L631.05 1490.04L426.11 1490.04L426.11 1474.46L427.98 1474.46L446.67 1474.46L446.67 1463.25L427.98 1463.25L427.98 1474.47L426.11 1474.47L426.11 1300.05L427.98 1300.05L427.98 1288.84L446.67 1288.84L446.67 1300.05L427.98 1300.05L426.11 1300.05L426.11 1120.03L426.12 1300.05L427.98 1300.05L446.67 1300.05L446.67 1288.84L427.98 1288.84L427.98 1300.05L426.12 1300.05L426.12 1474.46L427.98 1474.46L427.98 1463.25L446.67 1463.25L446.67 1474.47L427.98 1474.47L426.12 1474.47L426.12 1490.04L631.05 1490.04L631.05 1481.94L619.84 1481.94L619.84 1463.25L631.05 1463.25L631.05 1481.94L631.05 1490.04L794.25 1490.04L794.25 1481.94L794.25 1463.25L794.25 1306.9L787.41 1306.9L787.41 1281.98L794.25 1281.98L794.25 1120.12L446.67 1120.03L446.67 1125.64L427.98 1125.64L427.98 1120.03L426.11 1120.03L426.12 1300.05 z" fill="#333333" stroke="#333333" />
    <path data-handle="0" d="M948.11 1474.46L1323.1 1474.46L1323.1 1630.81L1310.64 1630.81L1310.64 1655.73L1323.1 1655.73L1323.1 1979.02L1317.49 1979.02L1317.49 1997.7L1323.1 1997.7L1323.1 2013.28L949.36 2013.28L949.36 1997.7L951.22 1997.7L951.22 1986.49L969.91 1986.49L969.91 1997.71L951.22 1997.71L949.36 1997.71L949.36 1823.29L951.22 1823.29L951.22 1812.08L969.91 1812.08L969.91 1823.29L951.22 1823.29L949.36 1823.29L949.36 1648.88L951.22 1648.88L951.22 1637.66L969.91 1637.66L969.91 1648.88L951.22 1648.88L949.36 1648.88L949.36 1490.04L942.5 1490.04L942.5 1481.94L948.11 1481.94L948.11 1474.46L948.11 1481.94L942.5 1481.94L942.5 1490.03L949.36 1490.03L949.36 1648.88L951.22 1648.88L969.91 1648.88L969.91 1637.67L951.23 1637.67L951.23 1648.88L949.36 1648.88L949.36 1823.29L951.22 1823.29L969.91 1823.29L969.91 1812.08L951.23 1812.08L951.23 1823.29L949.36 1823.29L949.36 1997.7L951.22 1997.7L969.91 1997.7L969.91 1986.49L951.23 1986.49L951.23 1997.71L949.36 1997.71L949.36 2013.28L1323.1 2013.28L1323.1 1997.71L1317.49 1997.71L1317.49 1979.02L1323.1 1979.02L1323.1 1655.73L1310.64 1655.73L1310.64 1630.81L1323.1 1630.81L1323.1 1474.47L948.11 1474.47L948.11 1481.94 z" fill="#333333" stroke="#333333" />
    <path data-handle="0" d="M960.57 837.23L999.81 837.23L1054.63 837.23L1103.84 837.23L1103.84 670.61L960.57 670.61L960.57 837.23L960.57 670.6L1103.84 670.6L1103.84 837.23L1054.63 837.23L999.81 837.23L960.57 837.23L960.57 670.6 z" fill="#333333" stroke="#333333" />
    <path data-handle="0" d="M1122.52 837.23L1237.76 837.23L1237.76 750.03L1122.52 750.03L1122.52 837.23L1122.52 750.02L1237.76 750.02L1237.76 837.23L1122.52 837.23L1122.52 750.02 z" fill="#333333" stroke="#333333" />
    <path data-handle="0" d="M1122.52 603.64L1122.52 706.42L1231.84 706.42L1231.84 691.85L1237.76 691.85L1237.76 603.64L1122.52 603.64L1237.76 603.64L1237.76 691.85L1231.84 691.85L1231.84 706.42L1122.52 706.42L1122.52 603.64L1237.76 603.64 z" fill="#333333" stroke="#333333" />
    <path data-handle="0" d="M1497.51 750.02L1666.32 750.02L1666.32 758.12L1677.53 758.12L1677.53 776.81L1666.32 776.81L1666.32 758.12L1666.32 750.02L1871.26 750.02L1871.26 765.6L1869.38 765.6L1850.7 765.6L1850.7 776.81L1869.38 776.81L1869.38 765.6L1871.26 765.6L1871.26 940.01L1869.39 940.01L1869.39 951.23L1850.7 951.23L1850.7 940.01L1869.38 940.01L1871.26 940.01L1871.26 1114.43L1871.26 1120.03L1869.38 1120.03L1869.38 1114.43L1850.7 1114.43L1850.7 1120.03L1500.06 1120.03L1500.06 958.07L1509.97 958.07L1509.97 933.16L1500.06 933.16L1500.06 776.81L1503.12 776.81L1503.12 758.12L1497.51 758.12L1497.51 750.02L1497.51 758.12L1503.12 758.12L1503.12 776.81L1500.07 776.81L1500.07 933.16L1509.97 933.16L1509.97 958.08L1500.07 958.08L1500.07 1120.03L1850.7 1120.03L1850.7 1114.42L1869.39 1114.42L1869.39 1120.03L1871.26 1120.03L1871.25 1114.43L1871.25 940.01L1869.38 940.01L1850.7 940.01L1850.7 951.22L1869.38 951.22L1869.38 940.01L1871.25 940.01L1871.25 765.6L1869.39 765.6L1869.39 776.81L1850.7 776.81L1850.7 765.6L1869.38 765.6L1871.25 765.6L1871.25 750.03L1666.32 750.03L1666.32 758.12L1666.32 776.81L1677.53 776.81L1677.53 758.12L1666.32 758.12L1666.32 750.03L1497.51 750.03L1497.51 758.12 z" fill="#333333" stroke="#333333" />
    <path data-handle="0" d="M1500.07 1281.99L1509.97 1281.99L1509.97 1306.9L1500.07 1306.9L1500.07 1469.79L1850.7 1469.79L1850.7 1463.25L1869.39 1463.25L1869.39 1468.86L1871.26 1468.86L1871.26 1300.05L1869.39 1300.05L1850.7 1300.05L1850.7 1288.84L1869.39 1288.84L1869.39 1300.05L1871.26 1300.05L1871.26 1120.03L1869.39 1120.03L1869.39 1125.64L1850.7 1125.64L1850.7 1120.03L1500.07 1120.03L1500.07 1281.99L1500.06 1120.03L1850.7 1120.03L1850.7 1125.64L1869.39 1125.64L1869.39 1120.03L1871.26 1120.03L1871.26 1300.05L1869.39 1300.05L1869.39 1288.84L1850.7 1288.84L1850.7 1300.05L1869.39 1300.05L1871.26 1300.05L1871.26 1468.86L1869.39 1468.86L1869.39 1463.25L1850.7 1463.25L1850.7 1469.79L1500.06 1469.79L1500.06 1306.9L1509.97 1306.9L1509.97 1281.99L1500.06 1281.99L1500.06 1120.03 z" fill="#333333" stroke="#333333" />
    <path data-handle="0" d="M1503.12 1979.02L1503.12 1655.73L1509.97 1655.73L1509.97 1630.81L1503.12 1630.81L1503.12 1471.91L1503.12 1469.79L1850.7 1469.79L1850.7 1474.46L1869.38 1474.46L1869.38 1468.86L1871.26 1468.86L1871.26 1637.67L1869.39 1637.67L1869.39 1648.88L1850.7 1648.88L1850.7 1637.66L1869.38 1637.66L1871.26 1637.66L1871.26 1812.08L1869.38 1812.08L1850.7 1812.08L1850.7 1823.29L1869.38 1823.29L1869.38 1812.08L1871.26 1812.08L1871.26 1986.49L1869.39 1986.49L1869.39 1997.71L1850.7 1997.71L1850.7 1986.49L1869.38 1986.49L1871.26 1986.49L1871.26 2013.28L1506.36 2013.28L1497.51 2013.28L1497.51 1997.7L1503.12 1997.7L1503.12 1979.02L1503.12 1997.71L1497.51 1997.71L1497.51 2013.28L1506.36 2013.28L1871.25 2013.28L1871.25 1986.49L1869.38 1986.49L1850.7 1986.49L1850.7 1997.7L1869.38 1997.7L1869.38 1986.49L1871.26 1986.49L1871.26 1812.08L1869.39 1812.08L1869.39 1823.29L1850.7 1823.29L1850.7 1812.08L1869.38 1812.08L1871.26 1812.08L1871.26 1637.67L1869.38 1637.67L1850.7 1637.67L1850.7 1648.88L1869.38 1648.88L1869.38 1637.66L1871.26 1637.66L1871.26 1468.86L1869.39 1468.86L1869.39 1474.47L1850.7 1474.47L1850.7 1469.79L1503.12 1469.79L1503.12 1471.91L1503.12 1630.81L1509.97 1630.81L1509.97 1655.73L1503.12 1655.73L1503.12 1979.02L1503.12 1997.71 z" fill="#333333" stroke="#333333" />
    <path data-handle="0" d="M1237.13 951.85L1336.8 951.85L1336.8 1115.02L1336.8 1169.86L1336.8 1288.22L1255.82 1288.22L1255.82 1169.86L1237.13 1169.86L1237.13 951.85L1237.14 1169.86L1255.83 1169.86L1255.83 1288.21L1336.8 1288.21L1336.8 1169.86L1336.8 1115.02L1336.8 951.85L1237.14 951.85L1237.14 1169.86 z" fill="#333333" stroke="#333333" />
    <path data-handle="0" d="M969.91 1300.67L985.49 1300.67L1054.63 1300.67L1265.17 1300.67L1265.17 1376.05L1190.42 1376.05L1056.81 1376.05L1056.81 1387.88L1190.42 1387.88L1190.34 1376.04L1265.17 1376.04L1265.17 1463.25L969.91 1463.25L969.91 1300.67L969.91 1300.67L969.91 1300.68L969.92 1463.25L1265.17 1463.25L1265.17 1376.05L1190.34 1376.05L1190.42 1387.88L1056.81 1387.88L1056.81 1376.04L1190.42 1376.04L1265.17 1376.04L1265.17 1300.68L1054.63 1300.68L985.49 1300.68L969.91 1300.68L969.91 1300.68 z" fill="#333333" stroke="#333333" />
    <path data-handle="0" d="M974.27 242.36L974.27 226.78L1348.02 226.78L1348.02 242.36L1346.14 242.36L1346.14 253.57L1327.45 253.57L1327.45 242.36L1346.14 242.36L1348.02 242.36L1348.02 416.77L1346.14 416.77L1346.14 427.98L1327.45 427.98L1327.45 416.77L1346.14 416.77L1348.02 416.77L1348.02 596.79L1346.14 596.79L1346.14 591.19L1327.46 591.19L1327.46 596.79L1247.1 596.79L1247.1 591.19L979.87 591.19L979.87 261.04L979.87 242.36L974.27 242.36L979.88 242.36L979.88 261.04L979.88 591.18L1247.11 591.18L1247.11 596.79L1327.45 596.79L1327.45 591.18L1346.14 591.18L1346.14 596.79L1348.01 596.79L1348.01 416.77L1346.14 416.77L1327.46 416.77L1327.46 427.98L1346.14 427.98L1346.14 416.77L1348.01 416.77L1348.01 242.36L1346.14 242.36L1327.46 242.36L1327.46 253.57L1346.14 253.57L1346.14 242.36L1348.01 242.36L1348.01 226.78L974.28 226.79L974.27 242.36L979.88 242.36 z" fill="#333333" stroke="#333333" />
    <path data-handle="0" d="M960.57 647.25L960.57 603.64L1114.74 603.64L1114.74 647.25L960.57 647.25L1114.73 647.24L1114.73 603.64L960.57 603.64L960.57 647.24L1114.73 647.24 z" fill="#333333" stroke="#333333" />
    <path data-handle="0" d="M1193.53 951.85L1224.68 951.85L1224.68 1057.74L1193.53 1057.74L1193.53 951.85L1193.53 1057.74L1224.68 1057.74L1224.68 951.85L1193.53 951.85L1193.53 1057.74 z" fill="#333333" stroke="#333333" />
    <path data-handle="0" d="M1193.53 1067.08L1224.68 1067.08L1224.68 1172.98L1193.53 1172.98L1193.53 1067.08L1193.53 1172.98L1224.68 1172.98L1224.68 1067.09L1193.53 1067.09L1193.53 1172.98 z" fill="#333333" stroke="#333333" />
    <path data-handle="0" d="M1277.63 1300.67L1338.67 1300.67L1338.67 1463.25L1277.63 1463.25L1277.63 1300.67L1277.63 1463.25L1338.67 1463.25L1338.67 1300.68L1277.63 1300.68L1277.63 1463.25 z" fill="#333333" stroke="#333333" />
    <path data-handle="0" d="M1323.1 1474.46L1349.26 1474.46L1349.88 1474.46L1375.42 1474.46L1375.42 1469.79L1503.12 1469.79L1503.12 1630.81L1485.05 1630.81L1485.05 1655.73L1503.12 1655.73L1503.12 1979.02L1491.91 1979.02L1491.91 1997.7L1497.51 1997.7L1497.51 2013.28L1323.1 2013.28L1323.1 1997.7L1328.7 1997.7L1328.7 1979.02L1323.1 1979.02L1323.1 1655.73L1335.55 1655.73L1335.55 1630.81L1323.1 1630.81L1323.1 1474.46L1323.1 1630.81L1335.56 1630.81L1335.56 1655.73L1323.1 1655.73L1323.1 1979.02L1328.71 1979.02L1328.71 1997.71L1323.1 1997.71L1323.1 2013.28L1497.51 2013.28L1497.51 1997.71L1491.9 1997.71L1491.9 1979.02L1503.12 1979.02L1503.12 1655.73L1485.05 1655.73L1485.05 1630.81L1503.12 1630.81L1503.12 1469.79L1375.42 1469.79L1375.42 1474.47L1349.88 1474.47L1349.26 1474.47L1323.1 1474.47L1323.1 1630.81 z" fill="#333333" stroke="#333333" />
    <path data-handle="0" d="M960.57 655.03L1122.52 655.03L1122.52 706.42L1231.84 706.42L1231.84 692.09L1237.76 692.09L1237.76 750.03L1122.52 750.03L1122.52 837.23L1103.84 837.23L1103.84 670.61L960.57 670.61L960.57 655.03L960.57 670.6L1103.84 670.6L1103.84 837.23L1122.52 837.23L1122.52 750.02L1237.76 750.02L1237.76 692.1L1231.84 692.1L1231.84 706.42L1122.52 706.42L1122.52 655.03L960.57 655.03L960.57 670.6 z" fill="#333333" stroke="#333333" />
    <path data-handle="0" d="M900.16 1293.35L957.45 1293.35L957.45 1291.33L985.49 1291.33L1054.63 1291.33L1068.95 1291.33L1068.95 1288.21L1081.41 1288.21L1081.41 951.85L1068.95 951.85L1068.95 941.41L928.98 941.41L900.16 1293.35L928.97 941.41L1068.95 941.41L1068.95 951.85L1081.41 951.85L1081.41 1288.22L1068.95 1288.22L1068.95 1291.33L1054.63 1291.33L985.49 1291.33L957.45 1291.33L957.45 1293.36L900.16 1293.36L928.97 941.41 z" fill="#333333" stroke="#333333" />
    <path data-handle="0" d="M948.11 600.53L921.95 600.53L921.95 591.18L948.11 591.18L979.87 591.18L979.87 261.05L968.66 261.05L968.66 242.36L974.27 242.36L974.27 226.79L799.86 226.79L799.86 242.36L799.86 242.36L799.86 226.78L974.28 226.78L974.27 242.36L968.67 242.36L968.67 261.04L979.88 261.04L979.88 591.19L948.11 591.19L921.95 591.19L921.95 600.53L948.11 600.53 z" fill="#333333" stroke="#333333" />
    <path data-handle="0" d="M799.86 242.36L799.86 226.78L805.46 242.36L805.46 261.05L794.25 261.05L794.25 584.33L812.32 584.33L812.32 595.86L812.32 609.25L797.3 609.25L797.3 933.16L812.32 933.16L812.32 958.08L797.3 958.08L797.3 1120.13L794.25 1120.13L794.25 1281.98L812.33 1281.98L812.33 1306.9L794.25 1306.9L794.25 1463.25L805.46 1463.25L805.46 1481.94L794.25 1481.94L794.25 1490.04L942.5 1490.03L942.5 1481.94L936.9 1481.94L936.9 1463.25L957.45 1463.25L957.45 1413.11L957.45 1350.82L957.45 1293.36L900.77 1293.36L900.16 1293.36L899.56 1300.68L890.18 1300.68L919.77 939.39L929.01 939.39L928.98 941.41L1068.33 941.41L1068.95 941.41L1068.95 939.39L1375.42 939.39L1375.42 948.73L1349.26 948.73L1349.26 1115.02L1349.26 1169.86L1349.26 1465.12L1349.88 1465.12L1375.42 1465.12L1375.42 1469.79L1500.06 1469.79L1500.06 1306.9L1485.05 1306.9L1485.05 1281.99L1500.06 1281.99L1500.06 958.08L1485.05 958.08L1485.05 933.16L1500.06 933.16L1500.06 776.81L1491.9 776.81L1491.9 758.12L1497.51 758.12L1497.51 750.03L1348.02 750.03L1338.67 758.12L1338.67 776.81L1327.46 776.81L1327.46 758.12L1338.67 758.12L1348.01 750.02L1348.01 596.79L1346.14 596.79L1346.14 602.4L1327.46 602.4L1327.45 596.79L1247.11 596.79L1247.11 626.69L1247.11 681.51L1247.11 693.96L1248.37 693.96L1248.37 742.55L1247.11 742.55L1247.11 848.45L1228.42 848.45L1173.6 848.45L1054.63 848.45L999.81 848.45L921.95 848.45L921.95 839.1L948.11 839.1L948.11 600.53L948.11 600.53L948.11 839.1L921.95 839.1L921.95 848.44L999.81 848.44L1054.63 848.44L1173.6 848.44L1228.42 848.44L1247.1 848.44L1247.1 742.55L1248.36 742.55L1248.36 693.97L1247.1 693.97L1247.1 681.51L1247.1 626.69L1247.1 596.79L1327.46 596.79L1327.46 602.4L1346.14 602.4L1346.14 596.79L1348.02 596.79L1348.02 750.03L1338.67 758.12L1327.46 758.12L1327.46 776.81L1338.67 776.81L1338.67 758.12L1348.01 750.02L1497.51 750.02L1497.51 758.12L1491.91 758.12L1491.91 776.81L1500.07 776.81L1500.07 933.16L1485.05 933.16L1485.05 958.07L1500.07 958.07L1500.07 1281.99L1485.05 1281.99L1485.05 1306.9L1500.07 1306.9L1500.07 1469.79L1375.42 1469.79L1375.42 1465.12L1349.88 1465.12L1349.26 1465.12L1349.26 1169.86L1349.26 1115.02L1349.26 948.73L1375.42 948.73L1375.42 939.39L1068.95 939.39L1068.95 941.41L1068.33 941.41L928.97 941.41L929 939.39L919.77 939.39L890.19 1300.67L899.56 1300.67L900.16 1293.35L900.77 1293.35L957.46 1293.35L957.46 1350.82L957.46 1413.11L957.45 1463.25L936.9 1463.25L936.9 1481.94L942.5 1481.94L942.5 1490.04L794.25 1490.04L794.25 1481.94L805.46 1481.94L805.46 1463.25L794.25 1463.25L794.25 1306.9L812.33 1306.9L812.33 1281.98L794.25 1281.98L794.25 1120.12L797.3 1120.12L797.3 958.07L812.31 958.07L812.31 933.16L797.3 933.16L797.3 609.25L812.31 609.25L812.31 595.86L812.31 584.33L794.25 584.33L794.25 261.04L805.46 261.04L805.46 242.36L799.86 226.79L799.86 242.36 z" fill="#333333" stroke="#333333" />
    -->
  </g>

</svg>